<svg width="1760" height="270" viewBox="0 0 1760 270" fill="none" xmlns="http://www.w3.org/2000/svg">
<path d="M1130.74 173.213V118.08H1133.78V173.213H1130.74ZM1104.7 147.167V144.126H1159.83V147.167H1104.7Z" fill="#FEFEFE"/>
<path d="M1072.74 184.239C1071.79 184.239 1070.99 183.907 1070.32 183.241C1069.65 182.576 1069.32 181.768 1069.32 180.817C1069.32 179.867 1069.65 179.059 1070.32 178.393C1070.99 177.728 1071.79 177.395 1072.74 177.395C1073.69 177.395 1074.5 177.728 1075.17 178.393C1075.83 179.059 1076.17 179.867 1076.17 180.817C1076.17 181.451 1076.01 182.037 1075.69 182.576C1075.41 183.083 1074.99 183.479 1074.46 183.764C1073.95 184.081 1073.38 184.239 1072.74 184.239Z" fill="#FEFEFE"/>
<path d="M1039.14 141.084V116.369L1017.66 128.726L1016.14 126.065L1037.62 113.707L1016.14 101.35L1017.66 98.6882L1039.14 111.046V86.3308H1042.18V111.046L1063.67 98.6882L1065.19 101.35L1043.7 113.707L1065.19 126.065L1063.67 128.726L1042.18 116.369V141.084H1039.14Z" fill="#FEFEFE"/>
<path d="M869.227 86.3308H871.889L911.623 179.106H912.003L951.737 86.3308H954.398V183.669H951.356V95.8365H950.976L913.334 183.669H910.292L872.649 95.8365H872.269V183.669H869.227V86.3308Z" fill="#FEFEFE"/>
<path d="M779.148 183.669H775.917L810.707 86.3308H814.89L849.681 183.669H846.449L812.989 90.1331H812.609L779.148 183.669ZM790.175 147.738H835.422V150.779H790.175V147.738Z" fill="#FEFEFE"/>
<path d="M705.325 183.669V86.3308H708.367V180.627H757.036V183.669H705.325Z" fill="#FEFEFE"/>
<path d="M675.525 116.749C674.954 113.422 673.782 110.079 672.008 106.721C670.265 103.33 667.936 100.225 665.021 97.4049C662.138 94.5849 658.715 92.3194 654.755 90.6084C650.794 88.8973 646.311 88.0418 641.304 88.0418C633.858 88.0418 627.331 90.0063 621.722 93.9354C616.146 97.8327 611.805 103.314 608.7 110.38C605.594 117.414 604.042 125.621 604.042 135C604.042 144.252 605.579 152.411 608.652 159.477C611.726 166.543 616.082 172.056 621.722 176.017C627.362 179.978 634.016 181.958 641.684 181.958C648.465 181.958 654.485 180.358 659.745 177.158C665.005 173.926 669.108 169.3 672.055 163.279C675.002 157.228 676.412 149.956 676.285 141.464L677.616 142.605H642.635V139.563H679.327V142.605C679.327 151.477 677.711 159.081 674.479 165.418C671.247 171.724 666.795 176.572 661.124 179.962C655.452 183.321 648.972 185 641.684 185C633.446 185 626.269 182.909 620.154 178.726C614.07 174.512 609.349 168.65 605.99 161.141C602.663 153.631 601 144.918 601 135C601 127.522 601.951 120.726 603.852 114.61C605.785 108.463 608.525 103.188 612.074 98.7833C615.655 94.3473 619.916 90.9411 624.859 88.5646C629.802 86.1882 635.284 85 641.304 85C647.008 85 652.046 85.9823 656.418 87.9468C660.791 89.9113 664.514 92.4937 667.587 95.6939C670.693 98.8625 673.148 102.3 674.954 106.008C676.792 109.683 677.996 113.264 678.567 116.749H675.525Z" fill="#FEFEFE"/>
</svg>
