<svg width="895" height="160" viewBox="0 0 895 160" fill="none" xmlns="http://www.w3.org/2000/svg">
<path d="M847.586 141.141V52.9279H852.453V141.141H847.586ZM805.913 99.4678V94.6009H894.126V99.4678H805.913Z" fill="#141414"/>
<path d="M754.791 158.783C753.27 158.783 751.977 158.251 750.912 157.186C749.848 156.122 749.315 154.829 749.315 153.308C749.315 151.787 749.848 150.494 750.912 149.43C751.977 148.365 753.27 147.833 754.791 147.833C756.312 147.833 757.604 148.365 758.669 149.43C759.734 150.494 760.266 151.787 760.266 153.308C760.266 154.322 760.012 155.26 759.506 156.122C759.049 156.933 758.39 157.566 757.528 158.023C756.717 158.53 755.805 158.783 754.791 158.783Z" fill="#141414"/>
<path d="M701.027 89.7338V50.1901L666.654 69.962L664.221 65.7034L698.593 45.9315L664.221 26.1597L666.654 21.9011L701.027 41.673V2.12927H705.894V41.673L740.266 21.9011L742.7 26.1597L708.327 45.9315L742.7 65.7034L740.266 69.962L705.894 50.1901V89.7338H701.027Z" fill="#141414"/>
<path d="M429.164 2.12927H433.422L496.996 150.57H497.605L561.179 2.12927H565.437V157.871H560.57V17.3384H559.962L499.734 157.871H494.867L434.639 17.3384H434.031V157.871H429.164V2.12927Z" fill="#141414"/>
<path d="M285.038 157.871H279.867L335.532 2.12927H342.224L397.89 157.871H392.719L339.183 8.21292H338.574L285.038 157.871ZM302.681 100.38H375.076V105.247H302.681V100.38Z" fill="#141414"/>
<path d="M166.92 157.871V2.12927H171.787V153.004H249.658V157.871H166.92Z" fill="#141414"/>
<path d="M119.24 50.7985C118.327 45.4753 116.451 40.1267 113.612 34.7528C110.824 29.3283 107.098 24.36 102.433 19.8479C97.82 15.3359 92.3447 11.711 86.0076 8.97339C79.6705 6.23574 72.4968 4.86692 64.4867 4.86692C52.5729 4.86692 42.1293 8.01014 33.1559 14.2966C24.2332 20.5323 17.2877 29.3029 12.3194 40.6084C7.35108 51.8631 4.86692 64.9937 4.86692 80C4.86692 94.8035 7.32573 107.858 12.2433 119.163C17.161 130.469 24.1318 139.29 33.1559 145.627C42.18 151.965 52.8264 155.133 65.0951 155.133C75.9442 155.133 85.5767 152.573 93.9924 147.452C102.408 142.281 108.973 134.88 113.688 125.247C118.403 115.564 120.659 103.929 120.456 90.3422L122.586 92.1673H66.616V87.3004H125.323V92.1673C125.323 106.362 122.738 118.53 117.567 128.669C112.395 138.758 105.273 146.515 96.1977 151.939C87.1229 157.313 76.7554 160 65.0951 160C51.9138 160 40.4309 156.654 30.6464 149.962C20.9125 143.219 13.3587 133.84 7.98479 121.825C2.6616 109.81 0 95.8682 0 80C0 68.0355 1.52091 57.161 4.56274 47.3764C7.65526 37.5412 12.0406 29.1001 17.7186 22.0532C23.4474 14.9556 30.2662 9.50571 38.1749 5.70342C46.0837 1.90114 54.8542 0 64.4867 0C73.6122 0 81.673 1.57161 88.6692 4.71483C95.6654 7.85805 101.622 11.9899 106.54 17.1103C111.508 22.18 115.437 27.6806 118.327 33.6122C121.267 39.493 123.194 45.2218 124.106 50.7985H119.24Z" fill="#141414"/>
</svg>
