<svg width="720" height="720" viewBox="0 0 720 720" fill="none" xmlns="http://www.w3.org/2000/svg">
<path d="M531.276 538.256V269.651H576.858V538.256H531.276ZM419.765 426.744V381.163H688.369V426.744H419.765Z" fill="#141414"/>
<path d="M286.378 570C276.339 570 267.725 566.405 260.535 559.215C253.345 552.025 249.75 543.411 249.75 533.372C249.75 523.333 253.345 514.719 260.535 507.529C267.725 500.339 276.339 496.744 286.378 496.744C296.417 496.744 305.031 500.339 312.221 507.529C319.411 514.719 323.006 523.333 323.006 533.372C323.006 540.019 321.31 546.124 317.919 551.686C314.663 557.248 310.254 561.725 304.692 565.116C299.266 568.372 293.161 570 286.378 570Z" fill="#141414"/>
<path d="M122.977 384.419L126.233 294.884L50.5349 342.907L31 308.721L110.767 267.209L31 225.698L50.5349 191.512L126.233 239.535L122.977 150H162.047L158.791 239.535L234.488 191.512L254.023 225.698L174.256 267.209L254.023 308.721L234.488 342.907L158.791 294.884L162.047 384.419H122.977Z" fill="#141414"/>
</svg>
