<svg width="640" height="437" viewBox="0 0 640 437" fill="none" xmlns="http://www.w3.org/2000/svg">
<path d="M510.444 386.974V141.411H523.992V386.974H510.444ZM394.437 270.967V257.418H640V270.967H394.437Z" fill="#FEFEFE"/>
<path d="M252.126 436.087C247.892 436.087 244.293 434.605 241.329 431.641C238.366 428.678 236.884 425.079 236.884 420.845C236.884 416.611 238.366 413.013 241.329 410.049C244.293 407.085 247.892 405.603 252.126 405.603C256.36 405.603 259.958 407.085 262.922 410.049C265.886 413.013 267.368 416.611 267.368 420.845C267.368 423.668 266.662 426.279 265.251 428.678C263.98 430.936 262.146 432.7 259.747 433.97C257.489 435.381 254.948 436.087 252.126 436.087Z" fill="#FEFEFE"/>
<path d="M102.459 243.87V133.79L6.77416 188.83L0 176.975L95.6851 121.935L0 66.8949L6.77416 55.0401L102.459 110.08V0H116.008V110.08L211.693 55.0401L218.467 66.8949L122.782 121.935L218.467 176.975L211.693 188.83L116.008 133.79V243.87H102.459Z" fill="#FEFEFE"/>
</svg>
