<svg width="1024" height="1024" viewBox="0 0 1024 1024" fill="none" xmlns="http://www.w3.org/2000/svg">
<path d="M702.444 680.974V435.411H715.992V680.974H702.444ZM586.436 564.967V551.418H832V564.967H586.436Z" fill="#141414"/>
<path d="M444.126 730.087C439.892 730.087 436.293 728.605 433.33 725.641C430.366 722.678 428.884 719.079 428.884 714.845C428.884 710.611 430.366 707.013 433.33 704.049C436.293 701.085 439.892 699.603 444.126 699.603C448.36 699.603 451.959 701.085 454.922 704.049C457.886 707.013 459.368 710.611 459.368 714.845C459.368 717.668 458.662 720.279 457.251 722.678C455.981 724.936 454.146 726.7 451.747 727.97C449.489 729.381 446.949 730.087 444.126 730.087Z" fill="#141414"/>
<path d="M294.459 537.87V427.79L198.774 482.83L192 470.975L287.685 415.935L192 360.895L198.774 349.04L294.459 404.08V294H308.008V404.08L403.693 349.04L410.467 360.895L314.782 415.935L410.467 470.975L403.693 482.83L308.008 427.79V537.87H294.459Z" fill="#141414"/>
</svg>
