<svg width="566" height="160" viewBox="0 0 566 160" fill="none" xmlns="http://www.w3.org/2000/svg">
<path d="M429.163 2.12927H433.422L496.996 150.57H497.604L561.178 2.12927H565.437V157.871H560.57V17.3384H559.962L499.733 157.871H494.867L434.638 17.3384H434.03V157.871H429.163V2.12927Z" fill="#FEFEFE"/>
<path d="M285.037 157.871H279.866L335.532 2.12927H342.224L397.889 157.871H392.718L339.182 8.21292H338.573L285.037 157.871ZM302.68 100.38H375.075V105.247H302.68V100.38Z" fill="#FEFEFE"/>
<path d="M166.92 157.871V2.12927H171.787V153.004H249.658V157.871H166.92Z" fill="#FEFEFE"/>
<path d="M119.24 50.7985C118.327 45.4753 116.451 40.1267 113.612 34.7528C110.824 29.3283 107.098 24.36 102.433 19.8479C97.82 15.3359 92.3447 11.711 86.0076 8.97339C79.6705 6.23574 72.4968 4.86692 64.4867 4.86692C52.5729 4.86692 42.1293 8.01014 33.1559 14.2966C24.2332 20.5323 17.2877 29.3029 12.3194 40.6084C7.35108 51.8631 4.86692 64.9937 4.86692 80C4.86692 94.8035 7.32573 107.858 12.2433 119.163C17.161 130.469 24.1318 139.29 33.1559 145.627C42.18 151.965 52.8264 155.133 65.0951 155.133C75.9442 155.133 85.5767 152.573 93.9924 147.452C102.408 142.281 108.973 134.88 113.688 125.247C118.403 115.564 120.659 103.929 120.456 90.3422L122.586 92.1673H66.616V87.3004H125.323V92.1673C125.323 106.362 122.738 118.53 117.567 128.669C112.395 138.758 105.273 146.515 96.1977 151.939C87.1229 157.313 76.7554 160 65.0951 160C51.9138 160 40.4309 156.654 30.6464 149.962C20.9125 143.219 13.3587 133.84 7.98479 121.825C2.6616 109.81 0 95.8682 0 80C0 68.0355 1.52091 57.161 4.56274 47.3764C7.65526 37.5412 12.0406 29.1001 17.7186 22.0532C23.4474 14.9556 30.2662 9.50571 38.1749 5.70342C46.0837 1.90114 54.8542 0 64.4867 0C73.6122 0 81.673 1.57161 88.6692 4.71483C95.6654 7.85805 101.622 11.9899 106.54 17.1103C111.508 22.18 115.437 27.6806 118.327 33.6122C121.267 39.493 123.194 45.2218 124.106 50.7985H119.24Z" fill="#FEFEFE"/>
</svg>
