<svg width="1760" height="540" viewBox="0 0 1760 540" fill="none" xmlns="http://www.w3.org/2000/svg">
<path d="M1280.59 269.141V180.928H1285.45V269.141H1280.59ZM1238.91 227.468V222.601H1327.13V227.468H1238.91Z" fill="#141414"/>
<path d="M1187.79 286.783C1186.27 286.783 1184.98 286.251 1183.91 285.186C1182.85 284.122 1182.32 282.829 1182.32 281.308C1182.32 279.787 1182.85 278.494 1183.91 277.43C1184.98 276.365 1186.27 275.833 1187.79 275.833C1189.31 275.833 1190.6 276.365 1191.67 277.43C1192.73 278.494 1193.27 279.787 1193.27 281.308C1193.27 282.322 1193.01 283.26 1192.51 284.122C1192.05 284.933 1191.39 285.566 1190.53 286.023C1189.72 286.53 1188.8 286.783 1187.79 286.783Z" fill="#141414"/>
<path d="M1134.03 217.734V178.19L1099.65 197.962L1097.22 193.704L1131.59 173.932L1097.22 154.16L1099.65 149.901L1134.03 169.673V130.129H1138.89V169.673L1173.27 149.901L1175.7 154.16L1141.33 173.932L1175.7 193.704L1173.27 197.962L1138.89 178.19V217.734H1134.03Z" fill="#141414"/>
<path d="M862.164 130.129H866.422L929.996 278.57H930.605L994.179 130.129H998.437V285.871H993.57V145.339H992.962L932.734 285.871H927.867L867.639 145.339H867.031V285.871H862.164V130.129Z" fill="#141414"/>
<path d="M718.038 285.871H712.867L768.532 130.129H775.224L830.89 285.871H825.718L772.182 136.213H771.574L718.038 285.871ZM735.68 228.38H808.076V233.247H735.68V228.38Z" fill="#141414"/>
<path d="M599.92 285.871V130.129H604.787V281.004H682.658V285.871H599.92Z" fill="#141414"/>
<path d="M552.24 178.798C551.327 173.475 549.451 168.127 546.612 162.753C543.824 157.328 540.098 152.36 535.433 147.848C530.82 143.336 525.345 139.711 519.008 136.973C512.67 134.236 505.497 132.867 497.487 132.867C485.573 132.867 475.129 136.01 466.156 142.297C457.233 148.532 450.288 157.303 445.319 168.608C440.351 179.863 437.867 192.994 437.867 208C437.867 222.804 440.326 235.858 445.243 247.163C450.161 258.469 457.132 267.29 466.156 273.627C475.18 279.965 485.826 283.133 498.095 283.133C508.944 283.133 518.577 280.573 526.992 275.452C535.408 270.281 541.973 262.88 546.688 253.247C551.403 243.564 553.659 231.929 553.456 218.342L555.586 220.167H499.616V215.3H558.323V220.167C558.323 234.362 555.738 246.53 550.567 256.669C545.395 266.758 538.273 274.515 529.198 279.939C520.123 285.313 509.755 288 498.095 288C484.914 288 473.431 284.654 463.646 277.962C453.913 271.219 446.359 261.84 440.985 249.825C435.662 237.81 433 223.868 433 208C433 196.035 434.521 185.161 437.563 175.376C440.655 165.541 445.041 157.1 450.719 150.053C456.447 142.956 463.266 137.506 471.175 133.703C479.084 129.901 487.854 128 497.487 128C506.612 128 514.673 129.572 521.669 132.715C528.665 135.858 534.622 139.99 539.54 145.11C544.508 150.18 548.437 155.681 551.327 161.612C554.267 167.493 556.194 173.222 557.106 178.798H552.24Z" fill="#141414"/>
<path d="M1324.82 402.684C1324.18 402.684 1323.64 402.459 1323.18 402.009C1322.73 401.548 1322.5 401.002 1322.5 400.37C1322.5 399.727 1322.73 399.18 1323.18 398.73C1323.64 398.28 1324.18 398.055 1324.82 398.055C1325.46 398.055 1326 398.28 1326.45 398.73C1326.9 399.18 1327.13 399.727 1327.13 400.37C1327.13 400.788 1327.02 401.173 1326.81 401.527C1326.6 401.881 1326.33 402.164 1325.97 402.379C1325.63 402.582 1325.24 402.684 1324.82 402.684Z" fill="#7B7B7B"/>
<path d="M1316.04 377.755V380.247H1304.25V377.755H1316.04ZM1307.94 371.841H1310.81V395.997C1310.81 397.026 1310.99 397.835 1311.34 398.424C1311.7 399.003 1312.16 399.416 1312.73 399.662C1313.29 399.898 1313.9 400.016 1314.54 400.016C1314.92 400.016 1315.24 399.994 1315.51 399.951C1315.77 399.898 1316.01 399.844 1316.21 399.791L1316.82 402.378C1316.54 402.485 1316.2 402.582 1315.79 402.668C1315.39 402.764 1314.88 402.812 1314.28 402.812C1313.23 402.812 1312.22 402.582 1311.25 402.121C1310.28 401.66 1309.49 400.975 1308.87 400.064C1308.25 399.153 1307.94 398.023 1307.94 396.673V371.841Z" fill="#7B7B7B"/>
<path d="M1282.96 387.014V402.443H1280.1V377.756H1282.88V381.63H1283.14C1283.72 380.365 1284.62 379.353 1285.84 378.592C1287.07 377.82 1288.59 377.435 1290.4 377.435C1292.07 377.435 1293.52 377.783 1294.78 378.479C1296.04 379.165 1297.02 380.178 1297.72 381.517C1298.42 382.856 1298.78 384.501 1298.78 386.451V402.443H1295.92V386.628C1295.92 384.603 1295.35 383.001 1294.21 381.822C1293.09 380.644 1291.58 380.054 1289.68 380.054C1288.38 380.054 1287.23 380.333 1286.23 380.89C1285.22 381.447 1284.42 382.251 1283.83 383.301C1283.25 384.34 1282.96 385.578 1282.96 387.014Z" fill="#7B7B7B"/>
<path d="M1263.78 402.957C1261.48 402.957 1259.49 402.421 1257.81 401.35C1256.12 400.268 1254.82 398.773 1253.9 396.866C1252.99 394.948 1252.53 392.74 1252.53 390.244C1252.53 387.758 1252.99 385.551 1253.9 383.622C1254.82 381.683 1256.09 380.166 1257.71 379.074C1259.34 377.97 1261.22 377.418 1263.35 377.418C1264.69 377.418 1265.98 377.665 1267.22 378.157C1268.47 378.64 1269.58 379.384 1270.57 380.391C1271.56 381.388 1272.35 382.647 1272.93 384.168C1273.51 385.679 1273.8 387.469 1273.8 389.537V390.951H1254.51V388.428H1270.87C1270.87 386.842 1270.55 385.417 1269.91 384.152C1269.28 382.877 1268.39 381.87 1267.26 381.131C1266.13 380.391 1264.83 380.022 1263.35 380.022C1261.79 380.022 1260.41 380.44 1259.22 381.275C1258.03 382.111 1257.1 383.215 1256.42 384.586C1255.76 385.958 1255.42 387.458 1255.41 389.087V390.597C1255.41 392.558 1255.75 394.273 1256.42 395.741C1257.11 397.198 1258.08 398.328 1259.33 399.132C1260.59 399.935 1262.07 400.337 1263.78 400.337C1264.95 400.337 1265.98 400.155 1266.85 399.791C1267.74 399.427 1268.49 398.939 1269.09 398.328C1269.7 397.707 1270.16 397.026 1270.47 396.287L1273.19 397.171C1272.81 398.21 1272.2 399.169 1271.34 400.048C1270.49 400.927 1269.43 401.634 1268.16 402.17C1266.89 402.695 1265.43 402.957 1263.78 402.957Z" fill="#7B7B7B"/>
<path d="M1214.95 402.443V377.756H1217.73V381.549H1217.99C1218.48 380.274 1219.3 379.272 1220.45 378.544C1221.61 377.804 1222.99 377.435 1224.61 377.435C1226.32 377.435 1227.71 377.837 1228.81 378.64C1229.91 379.433 1230.74 380.526 1231.28 381.919H1231.49C1232.05 380.547 1232.95 379.46 1234.21 378.656C1235.47 377.842 1237 377.435 1238.8 377.435C1241.1 377.435 1242.91 378.158 1244.24 379.604C1245.57 381.04 1246.23 383.14 1246.23 385.905V402.443H1243.37V385.905C1243.37 383.955 1242.87 382.492 1241.87 381.517C1240.88 380.542 1239.56 380.054 1237.94 380.054C1236.05 380.054 1234.6 380.633 1233.58 381.79C1232.56 382.948 1232.05 384.415 1232.05 386.194V402.443H1229.13V385.648C1229.13 383.976 1228.66 382.626 1227.73 381.597C1226.8 380.569 1225.49 380.054 1223.79 380.054C1222.66 380.054 1221.63 380.333 1220.72 380.89C1219.82 381.447 1219.11 382.224 1218.59 383.221C1218.07 384.207 1217.81 385.342 1217.81 386.628V402.443H1214.95Z" fill="#7B7B7B"/>
<path d="M1198.64 402.957C1196.33 402.957 1194.34 402.421 1192.66 401.35C1190.97 400.268 1189.67 398.773 1188.75 396.866C1187.84 394.948 1187.38 392.74 1187.38 390.244C1187.38 387.758 1187.84 385.551 1188.75 383.622C1189.67 381.683 1190.94 380.166 1192.56 379.074C1194.19 377.97 1196.07 377.418 1198.2 377.418C1199.54 377.418 1200.83 377.665 1202.07 378.157C1203.32 378.64 1204.43 379.384 1205.42 380.391C1206.41 381.388 1207.2 382.647 1207.78 384.168C1208.36 385.679 1208.65 387.469 1208.65 389.537V390.951H1189.36V388.428H1205.72C1205.72 386.842 1205.4 385.417 1204.76 384.152C1204.13 382.877 1203.24 381.87 1202.11 381.131C1200.98 380.391 1199.68 380.022 1198.2 380.022C1196.64 380.022 1195.26 380.44 1194.07 381.275C1192.88 382.111 1191.95 383.215 1191.27 384.586C1190.61 385.958 1190.27 387.458 1190.26 389.087V390.597C1190.26 392.558 1190.6 394.273 1191.27 395.741C1191.96 397.198 1192.93 398.328 1194.18 399.132C1195.44 399.935 1196.92 400.337 1198.64 400.337C1199.8 400.337 1200.83 400.155 1201.71 399.791C1202.59 399.427 1203.34 398.939 1203.94 398.328C1204.55 397.707 1205.01 397.026 1205.32 396.287L1208.04 397.171C1207.66 398.21 1207.05 399.169 1206.19 400.048C1205.34 400.927 1204.28 401.634 1203.01 402.17C1201.74 402.695 1200.29 402.957 1198.64 402.957Z" fill="#7B7B7B"/>
<path d="M1170.89 412.215C1169.21 412.215 1167.74 411.995 1166.47 411.556C1165.21 411.127 1164.14 410.538 1163.27 409.788C1162.4 409.038 1161.73 408.197 1161.25 407.264L1163.59 405.722C1163.95 406.343 1164.42 406.954 1165.01 407.554C1165.61 408.154 1166.39 408.652 1167.34 409.049C1168.3 409.445 1169.49 409.643 1170.89 409.643C1173.08 409.643 1174.84 409.097 1176.18 408.004C1177.53 406.911 1178.2 405.213 1178.2 402.909V397.348H1177.95C1177.61 398.098 1177.14 398.848 1176.52 399.598C1175.89 400.337 1175.08 400.953 1174.07 401.446C1173.08 401.939 1171.84 402.186 1170.36 402.186C1168.39 402.186 1166.64 401.698 1165.1 400.723C1163.58 399.748 1162.38 398.355 1161.5 396.544C1160.64 394.723 1160.2 392.553 1160.2 390.035C1160.2 387.538 1160.63 385.342 1161.47 383.445C1162.33 381.549 1163.52 380.07 1165.06 379.009C1166.59 377.948 1168.37 377.418 1170.41 377.418C1171.92 377.418 1173.17 377.686 1174.17 378.222C1175.17 378.747 1175.96 379.4 1176.56 380.183C1177.18 380.965 1177.65 381.725 1177.99 382.465H1178.28V377.756H1181.08V403.086C1181.08 405.175 1180.64 406.895 1179.75 408.245C1178.86 409.595 1177.65 410.591 1176.11 411.234C1174.58 411.888 1172.84 412.215 1170.89 412.215ZM1170.7 399.566C1172.28 399.566 1173.64 399.185 1174.76 398.425C1175.89 397.653 1176.75 396.55 1177.35 395.114C1177.95 393.678 1178.25 391.969 1178.25 389.987C1178.25 388.058 1177.96 386.349 1177.37 384.86C1176.78 383.36 1175.92 382.181 1174.8 381.324C1173.68 380.456 1172.32 380.022 1170.7 380.022C1169.05 380.022 1167.65 380.466 1166.52 381.356C1165.38 382.245 1164.53 383.445 1163.95 384.956C1163.37 386.456 1163.08 388.133 1163.08 389.987C1163.08 391.873 1163.37 393.539 1163.96 394.985C1164.55 396.421 1165.42 397.546 1166.55 398.36C1167.69 399.164 1169.07 399.566 1170.7 399.566Z" fill="#7B7B7B"/>
<path d="M1143.17 403.005C1141.68 403.005 1140.32 402.716 1139.09 402.137C1137.86 401.548 1136.88 400.702 1136.15 399.598C1135.42 398.484 1135.06 397.134 1135.06 395.548C1135.06 394.326 1135.29 393.298 1135.75 392.462C1136.21 391.626 1136.86 390.94 1137.71 390.405C1138.56 389.869 1139.56 389.446 1140.71 389.135C1141.87 388.824 1143.15 388.583 1144.54 388.412C1145.92 388.24 1147.09 388.09 1148.04 387.962C1149.01 387.833 1149.74 387.629 1150.25 387.351C1150.75 387.072 1151 386.622 1151 386.001V385.422C1151 383.74 1150.5 382.417 1149.49 381.452C1148.49 380.477 1147.06 379.99 1145.18 379.99C1143.4 379.99 1141.95 380.381 1140.83 381.163C1139.71 381.945 1138.93 382.867 1138.48 383.927L1135.76 382.947C1136.32 381.597 1137.09 380.52 1138.08 379.716C1139.06 378.902 1140.17 378.318 1141.39 377.965C1142.61 377.6 1143.85 377.418 1145.1 377.418C1146.05 377.418 1147.03 377.541 1148.04 377.788C1149.07 378.034 1150.03 378.463 1150.9 379.074C1151.78 379.674 1152.5 380.515 1153.04 381.597C1153.59 382.668 1153.86 384.029 1153.86 385.679V402.443H1151V398.537H1150.82C1150.48 399.266 1149.97 399.973 1149.3 400.659C1148.62 401.344 1147.78 401.907 1146.76 402.346C1145.74 402.786 1144.55 403.005 1143.17 403.005ZM1143.56 400.386C1145.08 400.386 1146.4 400.048 1147.51 399.373C1148.63 398.698 1149.48 397.803 1150.08 396.689C1150.7 395.564 1151 394.326 1151 392.976V389.408C1150.79 389.612 1150.43 389.794 1149.92 389.955C1149.43 390.115 1148.86 390.26 1148.2 390.388C1147.56 390.506 1146.92 390.608 1146.28 390.694C1145.63 390.78 1145.05 390.855 1144.54 390.919C1143.15 391.09 1141.96 391.358 1140.97 391.722C1139.99 392.087 1139.23 392.59 1138.71 393.233C1138.18 393.865 1137.92 394.68 1137.92 395.676C1137.92 397.176 1138.45 398.339 1139.53 399.164C1140.6 399.978 1141.94 400.386 1143.56 400.386Z" fill="#7B7B7B"/>
<path d="M1112.93 387.014V402.443H1110.07V377.756H1112.85V381.63H1113.11C1113.68 380.365 1114.58 379.353 1115.81 378.592C1117.04 377.82 1118.56 377.435 1120.37 377.435C1122.03 377.435 1123.49 377.783 1124.74 378.479C1126.01 379.165 1126.99 380.178 1127.68 381.517C1128.39 382.856 1128.74 384.501 1128.74 386.451V402.443H1125.88V386.628C1125.88 384.603 1125.32 383.001 1124.18 381.822C1123.05 380.644 1121.54 380.054 1119.65 380.054C1118.35 380.054 1117.2 380.333 1116.19 380.89C1115.18 381.447 1114.39 382.251 1113.8 383.301C1113.22 384.34 1112.93 385.578 1112.93 387.014Z" fill="#7B7B7B"/>
<path d="M1091.77 403.005C1090.28 403.005 1088.92 402.716 1087.69 402.137C1086.46 401.548 1085.48 400.702 1084.75 399.598C1084.02 398.484 1083.65 397.134 1083.65 395.548C1083.65 394.326 1083.88 393.298 1084.34 392.462C1084.81 391.626 1085.46 390.94 1086.31 390.405C1087.15 389.869 1088.15 389.446 1089.31 389.135C1090.47 388.824 1091.74 388.583 1093.14 388.412C1094.52 388.24 1095.69 388.09 1096.64 387.962C1097.6 387.833 1098.34 387.629 1098.84 387.351C1099.35 387.072 1099.6 386.622 1099.6 386.001V385.422C1099.6 383.74 1099.09 382.417 1098.09 381.452C1097.09 380.477 1095.65 379.99 1093.78 379.99C1092 379.99 1090.55 380.381 1089.42 381.163C1088.31 381.945 1087.53 382.867 1087.08 383.927L1084.36 382.947C1084.92 381.597 1085.69 380.52 1086.68 379.716C1087.66 378.902 1088.76 378.318 1089.99 377.965C1091.21 377.6 1092.45 377.418 1093.7 377.418C1094.64 377.418 1095.62 377.541 1096.64 377.788C1097.67 378.034 1098.62 378.463 1099.5 379.074C1100.38 379.674 1101.09 380.515 1101.64 381.597C1102.19 382.668 1102.46 384.029 1102.46 385.679V402.443H1099.6V398.537H1099.42C1099.08 399.266 1098.57 399.973 1097.89 400.659C1097.22 401.344 1096.37 401.907 1095.35 402.346C1094.34 402.786 1093.14 403.005 1091.77 403.005ZM1092.16 400.386C1093.68 400.386 1095 400.048 1096.11 399.373C1097.22 398.698 1098.08 397.803 1098.68 396.689C1099.29 395.564 1099.6 394.326 1099.6 392.976V389.408C1099.38 389.612 1099.02 389.794 1098.52 389.955C1098.03 390.115 1097.45 390.26 1096.8 390.388C1096.16 390.506 1095.52 390.608 1094.87 390.694C1094.23 390.78 1093.65 390.855 1093.14 390.919C1091.74 391.09 1090.55 391.358 1089.57 391.722C1088.58 392.087 1087.83 392.59 1087.3 393.233C1086.78 393.865 1086.51 394.68 1086.51 395.676C1086.51 397.176 1087.05 398.339 1088.12 399.164C1089.19 399.978 1090.54 400.386 1092.16 400.386Z" fill="#7B7B7B"/>
<path d="M1045.6 369.527H1049.07L1061.02 398.2H1061.3L1073.25 369.527H1076.72V402.443H1073.89V375.875H1073.63L1062.53 402.443H1059.79L1048.69 375.875H1048.43V402.443H1045.6V369.527Z" fill="#7B7B7B"/>
<path d="M1025.78 377.755V380.247H1014V377.755H1025.78ZM1017.68 371.841H1020.56V395.997C1020.56 397.026 1020.73 397.835 1021.09 398.424C1021.44 399.003 1021.9 399.416 1022.47 399.662C1023.04 399.898 1023.64 400.016 1024.29 400.016C1024.66 400.016 1024.98 399.994 1025.25 399.951C1025.52 399.898 1025.75 399.844 1025.96 399.791L1026.57 402.378C1026.29 402.485 1025.95 402.582 1025.54 402.668C1025.13 402.764 1024.63 402.812 1024.03 402.812C1022.98 402.812 1021.97 402.582 1020.99 402.121C1020.03 401.66 1019.23 400.975 1018.61 400.064C1017.99 399.153 1017.68 398.023 1017.68 396.673V371.841Z" fill="#7B7B7B"/>
<path d="M999.74 402.957C997.436 402.957 995.443 402.421 993.761 401.35C992.079 400.268 990.777 398.773 989.855 396.866C988.945 394.948 988.489 392.74 988.489 390.244C988.489 387.758 988.945 385.551 989.855 383.622C990.777 381.683 992.047 380.166 993.665 379.074C995.293 377.97 997.174 377.418 999.306 377.418C1000.65 377.418 1001.94 377.665 1003.18 378.157C1004.42 378.64 1005.54 379.384 1006.52 380.391C1007.52 381.388 1008.31 382.647 1008.89 384.168C1009.46 385.679 1009.75 387.469 1009.75 389.537V390.951H990.466V388.428H1006.83C1006.83 386.842 1006.51 385.417 1005.86 384.152C1005.23 382.877 1004.35 381.87 1003.21 381.131C1002.09 380.391 1000.78 380.022 999.306 380.022C997.742 380.022 996.365 380.44 995.175 381.275C993.986 382.111 993.054 383.215 992.379 384.586C991.714 385.958 991.377 387.458 991.366 389.087V390.597C991.366 392.558 991.704 394.273 992.379 395.741C993.065 397.198 994.034 398.328 995.288 399.132C996.541 399.935 998.025 400.337 999.74 400.337C1000.91 400.337 1001.93 400.155 1002.81 399.791C1003.7 399.427 1004.44 398.939 1005.04 398.328C1005.65 397.707 1006.12 397.026 1006.43 396.287L1009.14 397.171C1008.77 398.21 1008.15 399.169 1007.29 400.048C1006.45 400.927 1005.39 401.634 1004.11 402.17C1002.85 402.695 1001.39 402.957 999.74 402.957Z" fill="#7B7B7B"/>
<path d="M983.141 383.172L980.521 383.911C980.264 383.172 979.9 382.502 979.429 381.902C978.957 381.302 978.341 380.825 977.58 380.472C976.83 380.118 975.898 379.941 974.784 379.941C973.112 379.941 971.741 380.338 970.669 381.131C969.598 381.924 969.062 382.947 969.062 384.201C969.062 385.261 969.426 386.124 970.155 386.788C970.894 387.442 972.03 387.962 973.562 388.347L977.291 389.263C979.359 389.767 980.907 390.565 981.936 391.658C982.975 392.751 983.495 394.123 983.495 395.773C983.495 397.166 983.109 398.403 982.338 399.485C981.566 400.568 980.489 401.419 979.107 402.041C977.736 402.652 976.144 402.957 974.334 402.957C971.923 402.957 969.935 402.416 968.371 401.334C966.806 400.241 965.805 398.666 965.365 396.608L968.114 395.933C968.467 397.401 969.158 398.51 970.187 399.26C971.226 400.01 972.592 400.386 974.285 400.386C976.182 400.386 977.698 399.962 978.834 399.116C979.97 398.259 980.538 397.187 980.538 395.901C980.538 394.905 980.205 394.069 979.541 393.394C978.877 392.708 977.87 392.205 976.519 391.883L972.485 390.919C970.342 390.405 968.756 389.59 967.728 388.476C966.699 387.362 966.185 385.979 966.185 384.329C966.185 382.968 966.555 381.774 967.294 380.745C968.033 379.706 969.051 378.891 970.348 378.302C971.644 377.713 973.123 377.418 974.784 377.418C977.044 377.418 978.85 377.932 980.2 378.961C981.561 379.979 982.541 381.383 983.141 383.172Z" fill="#7B7B7B"/>
<path d="M959.937 383.172L957.317 383.911C957.06 383.172 956.695 382.502 956.224 381.902C955.753 381.302 955.136 380.825 954.376 380.472C953.626 380.118 952.693 379.941 951.579 379.941C949.908 379.941 948.536 380.338 947.465 381.131C946.393 381.924 945.857 382.947 945.857 384.201C945.857 385.261 946.222 386.124 946.95 386.788C947.69 387.442 948.825 387.962 950.358 388.347L954.086 389.263C956.154 389.767 957.703 390.565 958.731 391.658C959.771 392.751 960.29 394.123 960.29 395.773C960.29 397.166 959.905 398.403 959.133 399.485C958.362 400.568 957.285 401.419 955.903 402.041C954.531 402.652 952.94 402.957 951.129 402.957C948.718 402.957 946.731 402.416 945.166 401.334C943.602 400.241 942.6 398.666 942.161 396.608L944.909 395.933C945.263 397.401 945.954 398.51 946.982 399.26C948.022 400.01 949.388 400.386 951.081 400.386C952.977 400.386 954.493 399.962 955.629 399.116C956.765 398.259 957.333 397.187 957.333 395.901C957.333 394.905 957.001 394.069 956.336 393.394C955.672 392.708 954.665 392.205 953.315 391.883L949.281 390.919C947.138 390.405 945.552 389.59 944.523 388.476C943.495 387.362 942.98 385.979 942.98 384.329C942.98 382.968 943.35 381.774 944.089 380.745C944.829 379.706 945.847 378.891 947.143 378.302C948.44 377.713 949.918 377.418 951.579 377.418C953.84 377.418 955.645 377.932 956.995 378.961C958.356 379.979 959.337 381.383 959.937 383.172Z" fill="#7B7B7B"/>
<path d="M914.291 402.443H911.141L923.115 369.527H926.329L938.303 402.443H935.153L924.835 373.432H924.61L914.291 402.443ZM916.557 389.826H932.887V392.526H916.557V389.826Z" fill="#7B7B7B"/>
<path d="M884.786 402.443V377.756H887.567V381.549H887.776C888.268 380.306 889.126 379.304 890.347 378.543C891.579 377.772 892.972 377.386 894.526 377.386C894.762 377.386 895.024 377.391 895.314 377.402C895.603 377.413 895.844 377.423 896.037 377.434V380.343C895.908 380.322 895.683 380.29 895.362 380.247C895.04 380.204 894.692 380.182 894.317 380.182C893.031 380.182 891.885 380.456 890.878 381.002C889.881 381.538 889.094 382.283 888.515 383.236C887.936 384.19 887.647 385.277 887.647 386.499V402.443H884.786Z" fill="#7B7B7B"/>
<path d="M867.641 402.957C865.509 402.957 863.623 402.416 861.984 401.334C860.355 400.252 859.08 398.757 858.159 396.85C857.237 394.932 856.776 392.719 856.776 390.212C856.776 387.683 857.237 385.46 858.159 383.542C859.08 381.613 860.355 380.113 861.984 379.041C863.623 377.959 865.509 377.418 867.641 377.418C869.774 377.418 871.654 377.959 873.283 379.041C874.911 380.124 876.186 381.624 877.108 383.542C878.04 385.46 878.506 387.683 878.506 390.212C878.506 392.719 878.045 394.932 877.124 396.85C876.203 398.757 874.922 400.252 873.283 401.334C871.654 402.416 869.774 402.957 867.641 402.957ZM867.641 400.337C869.356 400.337 870.808 399.877 871.997 398.955C873.186 398.034 874.086 396.807 874.697 395.274C875.319 393.742 875.629 392.055 875.629 390.212C875.629 388.369 875.319 386.676 874.697 385.133C874.086 383.59 873.186 382.352 871.997 381.42C870.808 380.488 869.356 380.022 867.641 380.022C865.938 380.022 864.486 380.488 863.286 381.42C862.096 382.352 861.191 383.59 860.569 385.133C859.959 386.676 859.653 388.369 859.653 390.212C859.653 392.055 859.959 393.742 860.569 395.274C861.191 396.807 862.096 398.034 863.286 398.955C864.475 399.877 865.927 400.337 867.641 400.337Z" fill="#7B7B7B"/>
<path d="M853.353 377.756V380.247H841.218V377.756H853.353ZM845.011 402.443V374.14C845.011 372.811 845.317 371.691 845.927 370.781C846.549 369.87 847.358 369.179 848.354 368.707C849.351 368.236 850.406 368 851.521 368C852.271 368 852.892 368.064 853.385 368.193C853.889 368.311 854.285 368.429 854.574 368.546L853.739 371.054C853.524 370.989 853.262 370.914 852.951 370.829C852.64 370.743 852.249 370.7 851.778 370.7C850.535 370.7 849.576 371.048 848.901 371.745C848.226 372.441 847.888 373.438 847.888 374.734L847.872 402.443H845.011Z" fill="#7B7B7B"/>
<path d="M811.597 402.957C809.572 402.957 807.798 402.422 806.277 401.35C804.755 400.279 803.566 398.784 802.709 396.866C801.862 394.948 801.439 392.714 801.439 390.164C801.439 387.624 801.862 385.401 802.709 383.494C803.566 381.576 804.761 380.086 806.293 379.026C807.825 377.954 809.609 377.418 811.645 377.418C813.145 377.418 814.393 377.686 815.39 378.222C816.386 378.747 817.185 379.401 817.785 380.183C818.385 380.965 818.851 381.726 819.183 382.465H819.44V369.527H822.317V402.443H819.52V397.862H819.183C818.851 398.612 818.379 399.384 817.768 400.177C817.158 400.959 816.349 401.618 815.342 402.154C814.345 402.689 813.097 402.957 811.597 402.957ZM811.934 400.337C813.531 400.337 814.892 399.904 816.017 399.036C817.142 398.157 817.999 396.952 818.588 395.419C819.188 393.876 819.488 392.108 819.488 390.115C819.488 388.144 819.194 386.403 818.604 384.892C818.015 383.37 817.158 382.181 816.033 381.324C814.908 380.456 813.541 380.022 811.934 380.022C810.284 380.022 808.891 380.472 807.755 381.372C806.63 382.261 805.773 383.467 805.184 384.988C804.605 386.51 804.316 388.219 804.316 390.115C804.316 392.033 804.611 393.764 805.2 395.307C805.789 396.85 806.646 398.077 807.771 398.987C808.907 399.887 810.295 400.337 811.934 400.337Z" fill="#7B7B7B"/>
<path d="M787.327 402.443V377.756H790.108V381.549H790.317C790.81 380.306 791.667 379.304 792.888 378.543C794.12 377.772 795.513 377.386 797.067 377.386C797.303 377.386 797.565 377.391 797.855 377.402C798.144 377.413 798.385 377.423 798.578 377.434V380.343C798.449 380.322 798.224 380.29 797.903 380.247C797.581 380.204 797.233 380.182 796.858 380.182C795.572 380.182 794.426 380.456 793.419 381.002C792.422 381.538 791.635 382.283 791.056 383.236C790.477 384.19 790.188 385.277 790.188 386.499V402.443H787.327Z" fill="#7B7B7B"/>
<path d="M769.029 403.005C767.54 403.005 766.179 402.716 764.947 402.137C763.715 401.548 762.734 400.702 762.006 399.598C761.277 398.484 760.913 397.134 760.913 395.548C760.913 394.326 761.143 393.298 761.604 392.462C762.064 391.626 762.718 390.94 763.565 390.405C764.411 389.869 765.413 389.446 766.57 389.135C767.727 388.824 769.002 388.583 770.395 388.412C771.778 388.24 772.945 388.09 773.899 387.962C774.863 387.833 775.597 387.629 776.101 387.351C776.605 387.072 776.856 386.622 776.856 386.001V385.422C776.856 383.74 776.353 382.417 775.346 381.452C774.349 380.477 772.913 379.99 771.038 379.99C769.259 379.99 767.808 380.381 766.683 381.163C765.568 381.945 764.786 382.867 764.336 383.927L761.62 382.947C762.177 381.597 762.948 380.52 763.934 379.716C764.92 378.902 766.024 378.318 767.245 377.965C768.467 377.6 769.704 377.418 770.958 377.418C771.901 377.418 772.881 377.541 773.899 377.788C774.928 378.034 775.881 378.463 776.76 379.074C777.639 379.674 778.351 380.515 778.898 381.597C779.444 382.668 779.717 384.029 779.717 385.679V402.443H776.856V398.537H776.68C776.337 399.266 775.828 399.973 775.153 400.659C774.478 401.344 773.631 401.907 772.613 402.346C771.595 402.786 770.401 403.005 769.029 403.005ZM769.415 400.386C770.936 400.386 772.254 400.048 773.369 399.373C774.483 398.698 775.34 397.803 775.94 396.689C776.551 395.564 776.856 394.326 776.856 392.976V389.408C776.642 389.612 776.283 389.794 775.78 389.955C775.287 390.115 774.713 390.26 774.06 390.388C773.417 390.506 772.774 390.608 772.131 390.694C771.488 390.78 770.91 390.855 770.395 390.919C769.002 391.09 767.813 391.358 766.827 391.722C765.841 392.087 765.086 392.59 764.561 393.233C764.036 393.865 763.773 394.68 763.773 395.676C763.773 397.176 764.309 398.339 765.381 399.164C766.452 399.978 767.797 400.386 769.415 400.386Z" fill="#7B7B7B"/>
<path d="M743.265 402.957C741.24 402.957 739.467 402.422 737.945 401.35C736.424 400.279 735.234 398.784 734.377 396.866C733.531 394.948 733.107 392.714 733.107 390.164C733.107 387.624 733.531 385.401 734.377 383.494C735.234 381.576 736.429 380.086 737.961 379.026C739.494 377.954 741.278 377.418 743.313 377.418C744.813 377.418 746.062 377.686 747.058 378.222C748.055 378.747 748.853 379.401 749.453 380.183C750.053 380.965 750.519 381.726 750.851 382.465H751.108V369.527H753.985V402.443H751.189V397.862H750.851C750.519 398.612 750.048 399.384 749.437 400.177C748.826 400.959 748.017 401.618 747.01 402.154C746.014 402.689 744.765 402.957 743.265 402.957ZM743.603 400.337C745.199 400.337 746.56 399.904 747.685 399.036C748.81 398.157 749.667 396.952 750.257 395.419C750.857 393.876 751.157 392.108 751.157 390.115C751.157 388.144 750.862 386.403 750.273 384.892C749.683 383.37 748.826 382.181 747.701 381.324C746.576 380.456 745.21 380.022 743.603 380.022C741.953 380.022 740.56 380.472 739.424 381.372C738.299 382.261 737.442 383.467 736.852 384.988C736.274 386.51 735.984 388.219 735.984 390.115C735.984 392.033 736.279 393.764 736.868 395.307C737.458 396.85 738.315 398.077 739.44 398.987C740.576 399.887 741.963 400.337 743.603 400.337Z" fill="#7B7B7B"/>
<path d="M711.028 387.014V402.443H708.167V377.756H710.948V381.63H711.205C711.783 380.365 712.683 379.353 713.905 378.592C715.137 377.82 716.659 377.435 718.469 377.435C720.13 377.435 721.587 377.783 722.841 378.479C724.105 379.165 725.086 380.178 725.782 381.517C726.489 382.856 726.843 384.501 726.843 386.451V402.443H723.982V386.628C723.982 384.603 723.414 383.001 722.279 381.822C721.153 380.644 719.643 380.054 717.746 380.054C716.45 380.054 715.298 380.333 714.291 380.89C713.283 381.447 712.485 382.251 711.896 383.301C711.317 384.34 711.028 385.578 711.028 387.014Z" fill="#7B7B7B"/>
<path d="M689.868 403.005C688.379 403.005 687.018 402.716 685.786 402.137C684.554 401.548 683.573 400.702 682.845 399.598C682.116 398.484 681.752 397.134 681.752 395.548C681.752 394.326 681.982 393.298 682.443 392.462C682.904 391.626 683.557 390.94 684.404 390.405C685.25 389.869 686.252 389.446 687.409 389.135C688.567 388.824 689.842 388.583 691.235 388.412C692.617 388.24 693.785 388.09 694.738 387.962C695.703 387.833 696.437 387.629 696.94 387.351C697.444 387.072 697.696 386.622 697.696 386.001V385.422C697.696 383.74 697.192 382.417 696.185 381.452C695.188 380.477 693.753 379.99 691.878 379.99C690.099 379.99 688.647 380.381 687.522 381.163C686.408 381.945 685.625 382.867 685.175 383.927L682.459 382.947C683.016 381.597 683.788 380.52 684.774 379.716C685.759 378.902 686.863 378.318 688.084 377.965C689.306 377.6 690.544 377.418 691.797 377.418C692.74 377.418 693.72 377.541 694.738 377.788C695.767 378.034 696.721 378.463 697.599 379.074C698.478 379.674 699.19 380.515 699.737 381.597C700.283 382.668 700.557 384.029 700.557 385.679V402.443H697.696V398.537H697.519C697.176 399.266 696.667 399.973 695.992 400.659C695.317 401.344 694.471 401.907 693.453 402.346C692.435 402.786 691.24 403.005 689.868 403.005ZM690.254 400.386C691.776 400.386 693.094 400.048 694.208 399.373C695.322 398.698 696.18 397.803 696.78 396.689C697.39 395.564 697.696 394.326 697.696 392.976V389.408C697.481 389.612 697.122 389.794 696.619 389.955C696.126 390.115 695.553 390.26 694.899 390.388C694.256 390.506 693.613 390.608 692.97 390.694C692.328 390.78 691.749 390.855 691.235 390.919C689.842 391.09 688.652 391.358 687.667 391.722C686.681 392.087 685.925 392.59 685.4 393.233C684.875 393.865 684.613 394.68 684.613 395.676C684.613 397.176 685.149 398.339 686.22 399.164C687.292 399.978 688.636 400.386 690.254 400.386Z" fill="#7B7B7B"/>
<path d="M676.476 377.755V380.247H664.695V377.755H676.476ZM668.376 371.841H671.253V395.997C671.253 397.026 671.43 397.835 671.783 398.424C672.137 399.003 672.598 399.416 673.165 399.662C673.733 399.898 674.339 400.016 674.982 400.016C675.357 400.016 675.678 399.994 675.946 399.951C676.214 399.898 676.45 399.844 676.653 399.791L677.264 402.378C676.985 402.485 676.642 402.582 676.235 402.668C675.828 402.764 675.325 402.812 674.724 402.812C673.674 402.812 672.662 402.582 671.687 402.121C670.722 401.66 669.93 400.975 669.308 400.064C668.687 399.153 668.376 398.023 668.376 396.673V371.841Z" fill="#7B7B7B"/>
<path d="M656.755 377.756C656.573 375.924 655.764 374.466 654.328 373.384C652.893 372.302 651.087 371.761 648.912 371.761C647.38 371.761 646.03 372.023 644.862 372.548C643.705 373.074 642.794 373.802 642.13 374.734C641.476 375.656 641.149 376.706 641.149 377.885C641.149 378.752 641.337 379.513 641.712 380.167C642.087 380.82 642.59 381.383 643.222 381.854C643.865 382.315 644.573 382.712 645.344 383.044C646.126 383.376 646.914 383.655 647.707 383.88L651.178 384.876C652.228 385.165 653.278 385.535 654.328 385.985C655.379 386.435 656.338 387.003 657.205 387.689C658.084 388.364 658.786 389.194 659.311 390.18C659.847 391.155 660.115 392.328 660.115 393.7C660.115 395.457 659.659 397.037 658.748 398.441C657.838 399.845 656.53 400.959 654.827 401.784C653.123 402.598 651.082 403.006 648.703 403.006C646.464 403.006 644.519 402.636 642.869 401.897C641.219 401.147 639.922 400.113 638.979 398.795C638.036 397.477 637.506 395.95 637.388 394.214H640.474C640.581 395.511 641.01 396.609 641.76 397.509C642.51 398.409 643.485 399.095 644.685 399.566C645.885 400.027 647.224 400.257 648.703 400.257C650.343 400.257 651.8 399.984 653.075 399.438C654.361 398.88 655.368 398.109 656.096 397.123C656.836 396.127 657.205 394.969 657.205 393.652C657.205 392.537 656.916 391.605 656.338 390.855C655.759 390.094 654.95 389.457 653.911 388.942C652.882 388.428 651.687 387.973 650.326 387.576L646.389 386.419C643.806 385.647 641.803 384.581 640.378 383.221C638.953 381.86 638.24 380.124 638.24 378.013C638.24 376.245 638.711 374.691 639.654 373.352C640.608 372.002 641.894 370.952 643.512 370.202C645.14 369.441 646.967 369.061 648.992 369.061C651.039 369.061 652.85 369.436 654.425 370.186C656 370.936 657.248 371.97 658.17 373.288C659.102 374.595 659.6 376.084 659.664 377.756H656.755Z" fill="#7B7B7B"/>
<path d="M594.62 402.443L587.162 377.756H590.184L596.034 398.12H596.243L602.077 377.756H605.115L610.901 398.071H611.126L616.976 377.756H619.998L612.54 402.443H609.583L603.733 382.208H603.427L597.577 402.443H594.62Z" fill="#7B7B7B"/>
<path d="M572.821 402.957C570.518 402.957 568.525 402.421 566.843 401.35C565.16 400.268 563.858 398.773 562.937 396.866C562.026 394.948 561.571 392.74 561.571 390.244C561.571 387.758 562.026 385.551 562.937 383.622C563.858 381.683 565.128 380.166 566.746 379.074C568.375 377.97 570.255 377.418 572.388 377.418C573.727 377.418 575.018 377.665 576.261 378.157C577.504 378.64 578.618 379.384 579.604 380.391C580.6 381.388 581.388 382.647 581.967 384.168C582.545 385.679 582.835 387.469 582.835 389.537V390.951H563.548V388.428H579.909C579.909 386.842 579.588 385.417 578.945 384.152C578.313 382.877 577.429 381.87 576.293 381.131C575.168 380.391 573.866 380.022 572.388 380.022C570.823 380.022 569.446 380.44 568.257 381.275C567.068 382.111 566.135 383.215 565.46 384.586C564.796 385.958 564.458 387.458 564.448 389.087V390.597C564.448 392.558 564.785 394.273 565.46 395.741C566.146 397.198 567.116 398.328 568.369 399.132C569.623 399.935 571.107 400.337 572.821 400.337C573.989 400.337 575.013 400.155 575.891 399.791C576.781 399.427 577.525 398.939 578.125 398.328C578.736 397.707 579.197 397.026 579.508 396.287L582.224 397.171C581.849 398.21 581.233 399.169 580.375 400.048C579.529 400.927 578.468 401.634 577.193 402.17C575.929 402.695 574.472 402.957 572.821 402.957Z" fill="#7B7B7B"/>
<path d="M554.684 369.527V402.443H551.759L532.311 374.879H532.054V402.443H529.048V369.527H531.957L551.469 397.123H551.726V369.527H554.684Z" fill="#7B7B7B"/>
<path d="M499.407 402.957C497.103 402.957 495.11 402.421 493.428 401.35C491.746 400.268 490.444 398.773 489.522 396.866C488.612 394.948 488.156 392.74 488.156 390.244C488.156 387.758 488.612 385.551 489.522 383.622C490.444 381.683 491.714 380.166 493.332 379.074C494.96 377.97 496.841 377.418 498.973 377.418C500.312 377.418 501.603 377.665 502.846 378.157C504.089 378.64 505.204 379.384 506.189 380.391C507.186 381.388 507.973 382.647 508.552 384.168C509.131 385.679 509.42 387.469 509.42 389.537V390.951H490.133V388.428H506.495C506.495 386.842 506.173 385.417 505.53 384.152C504.898 382.877 504.014 381.87 502.879 381.131C501.753 380.391 500.452 380.022 498.973 380.022C497.409 380.022 496.032 380.44 494.842 381.275C493.653 382.111 492.721 383.215 492.046 384.586C491.381 385.958 491.044 387.458 491.033 389.087V390.597C491.033 392.558 491.371 394.273 492.046 395.741C492.732 397.198 493.701 398.328 494.955 399.132C496.209 399.935 497.693 400.337 499.407 400.337C500.575 400.337 501.598 400.155 502.477 399.791C503.366 399.427 504.111 398.939 504.711 398.328C505.322 397.707 505.782 397.026 506.093 396.287L508.809 397.171C508.434 398.21 507.818 399.169 506.961 400.048C506.114 400.927 505.054 401.634 503.779 402.17C502.514 402.695 501.057 402.957 499.407 402.957Z" fill="#7B7B7B"/>
<path d="M465.9 387.013V402.443H463.04V369.527H465.9V381.629H466.158C466.736 380.354 467.631 379.336 468.842 378.575C470.063 377.815 471.606 377.434 473.471 377.434C475.142 377.434 476.61 377.777 477.874 378.463C479.139 379.149 480.124 380.161 480.832 381.501C481.539 382.84 481.892 384.49 481.892 386.451V402.443H479.015V386.628C479.015 384.592 478.448 382.99 477.312 381.822C476.187 380.643 474.665 380.054 472.747 380.054C471.429 380.054 470.256 380.333 469.227 380.89C468.199 381.447 467.384 382.251 466.784 383.301C466.195 384.34 465.9 385.578 465.9 387.013Z" fill="#7B7B7B"/>
<path d="M433 372.227V369.527H456.867V372.227H446.436V402.443H443.431V372.227H433Z" fill="#7B7B7B"/>
</svg>
