<svg width="1760" height="270" viewBox="0 0 1760 270" fill="none" xmlns="http://www.w3.org/2000/svg">
<path d="M529.741 173.213V118.08H532.783V173.213H529.741ZM503.695 147.167V144.126H558.828V147.167H503.695Z" fill="#FEFEFE"/>
<path d="M471.744 184.239C470.794 184.239 469.986 183.907 469.32 183.241C468.655 182.576 468.322 181.768 468.322 180.817C468.322 179.867 468.655 179.059 469.32 178.393C469.986 177.728 470.794 177.395 471.744 177.395C472.695 177.395 473.503 177.728 474.168 178.393C474.834 179.059 475.166 179.867 475.166 180.817C475.166 181.451 475.008 182.037 474.691 182.576C474.406 183.083 473.994 183.479 473.455 183.764C472.948 184.081 472.378 184.239 471.744 184.239Z" fill="#FEFEFE"/>
<path d="M438.141 141.084V116.369L416.659 128.726L415.138 126.065L436.621 113.707L415.138 101.35L416.659 98.6882L438.141 111.046V86.3308H441.183V111.046L462.666 98.6882L464.187 101.35L442.704 113.707L464.187 126.065L462.666 128.726L441.183 116.369V141.084H438.141Z" fill="#FEFEFE"/>
<path d="M268.228 86.3308H270.889L310.623 179.106H311.003L350.737 86.3308H353.399V183.669H350.357V95.8365H349.977L312.334 183.669H309.292L271.65 95.8365H271.269V183.669H268.228V86.3308Z" fill="#FEFEFE"/>
<path d="M178.149 183.669H174.917L209.708 86.3308H213.89L248.681 183.669H245.449L211.989 90.1331H211.609L178.149 183.669ZM189.176 147.738H234.423V150.779H189.176V147.738Z" fill="#FEFEFE"/>
<path d="M104.325 183.669V86.3308H107.367V180.627H156.036V183.669H104.325Z" fill="#FEFEFE"/>
<path d="M74.5247 116.749C73.9544 113.422 72.782 110.079 71.0076 106.721C69.2649 103.33 66.936 100.225 64.0209 97.4049C61.1375 94.5849 57.7155 92.3194 53.7548 90.6084C49.794 88.8973 45.3105 88.0418 40.3042 88.0418C32.858 88.0418 26.3308 90.0063 20.7224 93.9354C15.1458 97.8327 10.8048 103.314 7.69962 110.38C4.59442 117.414 3.04182 125.621 3.04182 135C3.04182 144.252 4.57858 152.411 7.65209 159.477C10.7256 166.543 15.0824 172.056 20.7224 176.017C26.3625 179.978 33.0165 181.958 40.6844 181.958C47.4651 181.958 53.4854 180.358 58.7452 177.158C64.0051 173.926 68.1084 169.3 71.0551 163.279C74.0019 157.228 75.4119 149.956 75.2852 141.464L76.616 142.605H41.635V139.563H78.327V142.605C78.327 151.477 76.711 159.081 73.4791 165.418C70.2472 171.724 65.7953 176.572 60.1236 179.962C54.4518 183.321 47.9721 185 40.6844 185C32.4461 185 25.2693 182.909 19.154 178.726C13.0703 174.512 8.34918 168.65 4.99049 161.141C1.6635 153.631 0 144.918 0 135C0 127.522 0.95057 120.726 2.85171 114.61C4.78454 108.463 7.52535 103.188 11.0741 98.7833C14.6546 94.3473 18.9164 90.9411 23.8593 88.5646C28.8023 86.1882 34.2839 85 40.3042 85C46.0076 85 51.0456 85.9823 55.4183 87.9468C59.7909 89.9113 63.5139 92.4937 66.5875 95.6939C69.6927 98.8625 72.1483 102.3 73.9544 106.008C75.7921 109.683 76.9962 113.264 77.5665 116.749H74.5247Z" fill="#FEFEFE"/>
</svg>
